<svg width="9" height="9" viewBox="0 0 9 9" fill="none" xmlns="http://www.w3.org/2000/svg">
<path id="&#194;&#174;" d="M0.618774 4.0533C0.618774 4.61111 0.717212 5.13142 0.914087 5.61423C1.11096 6.09236 1.37815 6.50955 1.71565 6.8658C2.05315 7.22205 2.44924 7.50095 2.90393 7.70251C3.35862 7.90408 3.84377 8.00486 4.3594 8.00486C4.87502 8.00486 5.36018 7.90408 5.81487 7.70251C6.26956 7.50095 6.66565 7.22205 7.00315 6.8658C7.34065 6.50955 7.60784 6.09236 7.80471 5.61423C8.00159 5.13142 8.10002 4.61111 8.10002 4.0533C8.10002 3.49548 8.00159 2.97751 7.80471 2.49939C7.60784 2.01658 7.34065 1.59705 7.00315 1.2408C6.66565 0.889233 6.26956 0.612671 5.81487 0.411108C5.36018 0.209546 4.87502 0.108765 4.3594 0.108765C3.84377 0.108765 3.35862 0.209546 2.90393 0.411108C2.44924 0.612671 2.05315 0.889233 1.71565 1.2408C1.37815 1.59705 1.11096 2.01658 0.914087 2.49939C0.717212 2.97751 0.618774 3.49548 0.618774 4.0533ZM1.25862 4.0533C1.25862 3.58923 1.33831 3.15798 1.49768 2.75955C1.66174 2.35642 1.8844 2.0072 2.16565 1.71189C2.4469 1.41658 2.77502 1.18689 3.15002 1.02283C3.52971 0.854077 3.93284 0.769702 4.3594 0.769702C4.78596 0.769702 5.18674 0.854077 5.56174 1.02283C5.94143 1.18689 6.2719 1.41658 6.55315 1.71189C6.8344 2.0072 7.05471 2.35642 7.21409 2.75955C7.37815 3.15798 7.46018 3.58923 7.46018 4.0533C7.46018 4.51736 7.37815 4.95095 7.21409 5.35408C7.05471 5.75251 6.8344 6.09939 6.55315 6.3947C6.2719 6.69001 5.94143 6.92205 5.56174 7.0908C5.18674 7.25955 4.78596 7.34392 4.3594 7.34392C3.93284 7.34392 3.52971 7.25955 3.15002 7.0908C2.77502 6.92205 2.4469 6.69001 2.16565 6.3947C1.8844 6.09939 1.66174 5.75251 1.49768 5.35408C1.33831 4.95095 1.25862 4.51736 1.25862 4.0533ZM3.60002 4.45408H4.43674L5.2594 6.22595H6.07502L5.04846 4.20798C5.35784 4.10017 5.59456 3.95486 5.75862 3.77205C5.92268 3.58923 6.00471 3.36658 6.00471 3.10408C6.00471 2.64939 5.84768 2.30955 5.53362 2.08455C5.22424 1.85955 4.8094 1.74705 4.28909 1.74705H2.80549V6.22595H3.60002V4.45408ZM3.60002 3.74392V2.45017H4.28909C4.63127 2.45017 4.87034 2.49939 5.00627 2.59783C5.14221 2.69626 5.21018 2.87439 5.21018 3.1322C5.21018 3.23064 5.18674 3.31736 5.13987 3.39236C5.09768 3.46736 5.03909 3.53064 4.96409 3.5822C4.88909 3.63376 4.80237 3.67361 4.70393 3.70173C4.60549 3.72986 4.50471 3.74392 4.40159 3.74392H3.60002Z" fill="white"/>
</svg>
